<?xml version="1.0" encoding="UTF-8"?>
<svg xmlns="http://www.w3.org/2000/svg" xmlns:xlink="http://www.w3.org/1999/xlink" width="835" zoomAndPan="magnify" viewBox="0 0 626.25 173.249993" height="231" preserveAspectRatio="xMidYMid meet" version="1.0">
  <defs>
    <clipPath id="05ac3f553e">
      <path d="M 99.558594 113.917969 L 134.070312 113.917969 L 134.070312 145.820312 L 99.558594 145.820312 Z M 99.558594 113.917969 " clip-rule="nonzero"></path>
    </clipPath>
    <clipPath id="a264cd7820">
      <path d="M 129.550781 133.164062 L 116.226562 133.164062 L 116.226562 129.164062 L 133.769531 129.164062 C 133.949219 130.78125 134.042969 131.898438 134.042969 132.503906 C 134.042969 136.75 132.351562 140.082031 128.953125 142.492188 C 125.925781 144.621094 122.175781 145.699219 117.703125 145.699219 C 112.246094 145.699219 107.90625 144.355469 104.660156 141.652344 C 101.265625 138.863281 99.558594 134.953125 99.558594 129.898438 C 99.558594 125.003906 101.179688 121.113281 104.425781 118.238281 C 107.667969 115.363281 111.992188 113.917969 117.378906 113.917969 C 121.386719 113.917969 124.746094 114.679688 127.4375 116.210938 C 130.589844 117.992188 132.722656 121.3125 133.824219 126.175781 L 129.3125 126.175781 C 128.609375 123.261719 127.316406 121.160156 125.429688 119.867188 C 123.546875 118.570312 120.863281 117.914062 117.398438 117.914062 C 113.160156 117.914062 109.867188 118.972656 107.507812 121.082031 C 105.148438 123.195312 103.96875 126.117188 103.96875 129.851562 C 103.96875 133.648438 105.167969 136.570312 107.554688 138.617188 C 109.945312 140.664062 113.324219 141.691406 117.671875 141.691406 C 120.984375 141.691406 123.785156 140.910156 126.066406 139.347656 C 128.351562 137.789062 129.515625 135.722656 129.542969 133.152344 " clip-rule="nonzero"></path>
    </clipPath>
    <clipPath id="03c50b3673">
      <path d="M 146.539062 114.238281 L 180.714844 114.238281 L 180.714844 145.375 L 146.539062 145.375 Z M 146.539062 114.238281 " clip-rule="nonzero"></path>
    </clipPath>
    <clipPath id="0a4d5ed482">
      <path d="M 163.835938 120.71875 L 158.074219 132.199219 L 169.441406 132.199219 Z M 175.816406 145.371094 L 171.371094 136.1875 L 156.03125 136.1875 L 151.519531 145.371094 L 146.539062 145.371094 L 162.148438 114.238281 L 165.59375 114.238281 L 180.664062 145.371094 Z M 175.816406 145.371094 " clip-rule="nonzero"></path>
    </clipPath>
    <clipPath id="09b8c753a9">
      <path d="M 193.289062 114.238281 L 222.378906 114.238281 L 222.378906 145.480469 L 193.289062 145.480469 Z M 193.289062 114.238281 " clip-rule="nonzero"></path>
    </clipPath>
    <clipPath id="1fb818328c">
      <path d="M 215.589844 132.429688 C 214.078125 131.601562 212.070312 131.179688 209.566406 131.179688 L 197.695312 131.179688 L 197.695312 141.375 L 209.746094 141.375 C 212.097656 141.375 213.992188 140.957031 215.429688 140.128906 C 217.046875 139.234375 217.855469 137.957031 217.855469 136.300781 C 217.855469 134.550781 217.105469 133.257812 215.589844 132.429688 M 214.875 119.359375 C 213.5625 118.609375 211.851562 118.238281 209.738281 118.238281 L 197.695312 118.238281 L 197.695312 127.191406 L 209.6875 127.191406 C 211.800781 127.191406 213.523438 126.8125 214.859375 126.042969 C 216.191406 125.269531 216.855469 124.15625 216.855469 122.691406 C 216.855469 121.226562 216.199219 120.113281 214.886719 119.359375 M 217.78125 143.535156 C 215.515625 144.761719 212.667969 145.371094 209.242188 145.371094 L 193.289062 145.371094 L 193.289062 114.238281 L 209.824219 114.238281 C 212.914062 114.238281 215.484375 114.886719 217.542969 116.171875 C 220.015625 117.703125 221.261719 119.941406 221.261719 122.871094 C 221.261719 125.355469 220.054688 127.375 217.636719 128.933594 C 220.730469 130.402344 222.273438 132.855469 222.273438 136.28125 C 222.273438 139.527344 220.769531 141.945312 217.769531 143.535156 " clip-rule="nonzero"></path>
    </clipPath>
    <clipPath id="ee8154d06a">
      <path d="M 236.472656 114.375 L 271.832031 114.375 L 271.832031 145.820312 L 236.472656 145.820312 Z M 236.472656 114.375 " clip-rule="nonzero"></path>
    </clipPath>
    <clipPath id="579a66eb43">
      <path d="M 263.867188 121.332031 C 261.570312 119.363281 258.316406 118.375 254.121094 118.375 C 249.921875 118.375 246.675781 119.363281 244.410156 121.351562 C 242.144531 123.34375 241.003906 126.179688 241.003906 129.851562 C 241.003906 133.527344 242.15625 136.421875 244.449219 138.53125 C 246.742188 140.644531 249.96875 141.703125 254.109375 141.703125 C 258.308594 141.703125 261.5625 140.65625 263.867188 138.5625 C 266.167969 136.46875 267.3125 133.566406 267.3125 129.863281 C 267.3125 126.160156 266.160156 123.3125 263.867188 121.34375 M 266.96875 141.4375 C 263.800781 144.28125 259.515625 145.710938 254.128906 145.710938 C 248.714844 145.710938 244.429688 144.292969 241.289062 141.464844 C 238.148438 138.636719 236.597656 134.753906 236.597656 129.851562 C 236.597656 124.949219 238.203125 121.125 241.421875 118.375 C 244.507812 115.707031 248.75 114.375 254.136719 114.375 C 259.527344 114.375 263.78125 115.707031 266.902344 118.375 C 270.121094 121.125 271.726562 124.960938 271.726562 129.851562 C 271.726562 134.714844 270.148438 138.582031 266.976562 141.425781 " clip-rule="nonzero"></path>
    </clipPath>
    <clipPath id="4f19d20282">
      <path d="M 286.925781 114.238281 L 316.476562 114.238281 L 316.476562 145.398438 L 286.925781 145.398438 Z M 286.925781 114.238281 " clip-rule="nonzero"></path>
    </clipPath>
    <clipPath id="a0c2a9cd33">
      <path d="M 312.398438 145.371094 L 291.332031 121.167969 L 291.332031 145.371094 L 286.925781 145.371094 L 286.925781 114.238281 L 290.875 114.238281 C 293.542969 117.425781 297.074219 121.492188 301.488281 126.449219 C 306.820312 132.417969 310.304688 136.359375 311.960938 138.253906 L 311.960938 114.238281 L 316.367188 114.238281 L 316.367188 145.371094 Z M 312.398438 145.371094 " clip-rule="nonzero"></path>
    </clipPath>
    <clipPath id="5a6947429b">
      <path d="M 122.589844 31.460938 L 126.484375 31.460938 L 126.484375 42.882812 L 122.589844 42.882812 Z M 100.507812 31.460938 L 104.402344 31.460938 L 104.402344 42.882812 L 100.507812 42.882812 Z M 100.507812 42.882812 L 126.484375 42.882812 L 126.484375 46.414062 L 100.507812 46.414062 Z M 100.507812 46.414062 L 104.402344 46.414062 L 104.402344 58.929688 L 100.507812 58.929688 Z M 122.589844 46.414062 L 126.484375 46.414062 L 126.484375 58.929688 L 122.589844 58.929688 Z M 122.589844 46.414062 " clip-rule="nonzero"></path>
    </clipPath>
    <clipPath id="d10dadabe0">
      <path d="M 129.054688 31.402344 L 159.273438 31.402344 L 159.273438 58.984375 L 129.054688 58.984375 Z M 129.054688 31.402344 " clip-rule="nonzero"></path>
    </clipPath>
    <clipPath id="fcf1277829">
      <path d="M 144.378906 37.171875 L 139.296875 47.296875 L 149.316406 47.296875 Z M 154.945312 58.929688 L 151.023438 50.828125 L 137.488281 50.828125 L 133.519531 58.929688 L 129.121094 58.929688 L 142.894531 31.460938 L 145.929688 31.460938 L 159.226562 58.929688 Z M 154.945312 58.929688 " clip-rule="nonzero"></path>
    </clipPath>
    <clipPath id="f42294313b">
      <path d="M 161.917969 31.402344 L 188 31.402344 L 188 58.984375 L 161.917969 58.984375 Z M 161.917969 31.402344 " clip-rule="nonzero"></path>
    </clipPath>
    <clipPath id="8f3ea01995">
      <path d="M 184.410156 58.929688 L 165.832031 37.570312 L 165.832031 58.929688 L 161.9375 58.929688 L 161.9375 31.460938 L 165.421875 31.460938 C 167.773438 34.265625 170.894531 37.863281 174.78125 42.242188 C 179.480469 47.515625 182.554688 50.980469 184.023438 52.65625 L 184.023438 31.460938 L 187.914062 31.460938 L 187.914062 58.929688 Z M 184.410156 58.929688 " clip-rule="nonzero"></path>
    </clipPath>
    <clipPath id="5660c33c76">
      <path d="M 193.460938 31.402344 L 220.160156 31.402344 L 220.160156 58.984375 L 193.460938 58.984375 Z M 193.460938 31.402344 " clip-rule="nonzero"></path>
    </clipPath>
    <clipPath id="a9d30e5c5e">
      <path d="M 213.640625 37.65625 C 211.863281 35.875 209.128906 34.980469 205.457031 34.980469 L 197.433594 34.980469 L 197.433594 55.40625 L 204.078125 55.40625 C 207.96875 55.40625 210.957031 54.550781 213.050781 52.835938 C 215.144531 51.125 216.191406 48.59375 216.191406 45.242188 C 216.191406 41.890625 215.347656 39.367188 213.640625 37.664062 M 215.507812 55.492188 C 212.671875 57.785156 208.824219 58.9375 203.960938 58.9375 L 193.539062 58.9375 L 193.539062 31.460938 L 205.496094 31.460938 C 210.273438 31.460938 213.929688 32.707031 216.441406 35.191406 C 218.867188 37.597656 220.085938 40.9375 220.085938 45.242188 C 220.085938 49.648438 218.5625 53.066406 215.507812 55.492188 " clip-rule="nonzero"></path>
    </clipPath>
    <clipPath id="74524fae03">
      <path d="M 225.148438 31.460938 L 229.042969 31.460938 L 229.042969 55.40625 L 225.148438 55.40625 Z M 225.148438 55.40625 L 246.386719 55.40625 L 246.386719 58.929688 L 225.148438 58.929688 Z M 225.148438 55.40625 " clip-rule="nonzero"></path>
    </clipPath>
    <clipPath id="0199e6d8d8">
      <path d="M 249.660156 31.460938 L 253.550781 31.460938 L 253.550781 58.929688 L 249.660156 58.929688 Z M 249.660156 31.460938 " clip-rule="nonzero"></path>
    </clipPath>
    <clipPath id="9aa930560d">
      <path d="M 259.039062 31.402344 L 285.152344 31.402344 L 285.152344 58.984375 L 259.039062 58.984375 Z M 259.039062 31.402344 " clip-rule="nonzero"></path>
    </clipPath>
    <clipPath id="c5fbd854ec">
      <path d="M 281.621094 58.929688 L 263.03125 37.570312 L 263.03125 58.929688 L 259.140625 58.929688 L 259.140625 31.460938 L 262.625 31.460938 C 264.972656 34.265625 268.097656 37.863281 271.980469 42.242188 C 276.679688 47.515625 279.757812 50.980469 281.222656 52.65625 L 281.222656 31.460938 L 285.113281 31.460938 L 285.113281 58.929688 Z M 281.621094 58.929688 " clip-rule="nonzero"></path>
    </clipPath>
    <clipPath id="83de73a7bf">
      <path d="M 289.703125 31.109375 L 320.363281 31.109375 L 320.363281 59.277344 L 289.703125 59.277344 Z M 289.703125 31.109375 " clip-rule="nonzero"></path>
    </clipPath>
    <clipPath id="e40500b9d9">
      <path d="M 316.277344 48.152344 L 304.53125 48.152344 L 304.53125 44.632812 L 320.007812 44.632812 C 320.171875 46.058594 320.257812 47.039062 320.257812 47.582031 C 320.257812 51.324219 318.753906 54.265625 315.753906 56.386719 C 313.078125 58.273438 309.765625 59.214844 305.828125 59.214844 C 301.019531 59.214844 297.183594 58.023438 294.320312 55.644531 C 291.320312 53.1875 289.816406 49.734375 289.816406 45.269531 C 289.816406 40.949219 291.246094 37.523438 294.109375 34.980469 C 296.972656 32.441406 300.78125 31.171875 305.53125 31.171875 C 309.070312 31.171875 312.03125 31.847656 314.402344 33.199219 C 317.183594 34.773438 319.066406 37.703125 320.035156 41.996094 L 316.058594 41.996094 C 315.441406 39.425781 314.296875 37.570312 312.632812 36.425781 C 310.964844 35.285156 308.605469 34.703125 305.550781 34.703125 C 301.820312 34.703125 298.90625 35.636719 296.820312 37.503906 C 294.738281 39.367188 293.699219 41.949219 293.699219 45.242188 C 293.699219 48.59375 294.757812 51.171875 296.871094 52.980469 C 298.984375 54.789062 301.953125 55.691406 305.796875 55.691406 C 308.71875 55.691406 311.195312 55.007812 313.203125 53.628906 C 315.210938 52.246094 316.238281 50.429688 316.269531 48.152344 " clip-rule="nonzero"></path>
    </clipPath>
    <clipPath id="59d628ae6f">
      <path d="M 100.375 74.542969 L 125.226562 74.542969 L 125.226562 102.289062 L 100.375 102.289062 Z M 100.375 74.542969 " clip-rule="nonzero"></path>
    </clipPath>
    <clipPath id="af5c2f14ad">
      <path d="M 114.433594 78.199219 L 104.402344 78.199219 L 104.402344 87.394531 L 114.472656 87.394531 C 116.425781 87.394531 118.003906 87.015625 119.222656 86.261719 C 120.554688 85.453125 121.210938 84.347656 121.210938 82.941406 C 121.210938 79.78125 118.945312 78.199219 114.425781 78.199219 M 121.164062 89.261719 C 119.164062 90.363281 116.679688 90.925781 113.710938 90.925781 L 104.402344 90.925781 L 104.402344 102.148438 L 100.507812 102.148438 L 100.507812 74.679688 L 114.167969 74.679688 C 121.460938 74.679688 125.105469 77.421875 125.105469 82.902344 C 125.105469 85.710938 123.789062 87.832031 121.171875 89.261719 " clip-rule="nonzero"></path>
    </clipPath>
    <clipPath id="b34b749e43">
      <path d="M 129.851562 74.542969 L 160.195312 74.542969 L 160.195312 102.289062 L 129.851562 102.289062 Z M 129.851562 74.542969 " clip-rule="nonzero"></path>
    </clipPath>
    <clipPath id="8b830d827a">
      <path d="M 145.226562 80.398438 L 140.152344 90.527344 L 150.175781 90.527344 Z M 155.792969 102.15625 L 151.871094 94.046875 L 138.335938 94.046875 L 134.367188 102.15625 L 129.96875 102.15625 L 143.742188 74.679688 L 146.777344 74.679688 L 160.074219 102.148438 Z M 155.792969 102.15625 " clip-rule="nonzero"></path>
    </clipPath>
    <clipPath id="bb8c9b147c">
      <path d="M 166 74.542969 L 190.832031 74.542969 L 190.832031 102.289062 L 166 102.289062 Z M 166 74.542969 " clip-rule="nonzero"></path>
    </clipPath>
    <clipPath id="0df0f3bd18">
      <path d="M 180.253906 78.199219 L 169.917969 78.199219 L 169.917969 87.121094 L 179.605469 87.121094 C 181.765625 87.121094 183.480469 86.746094 184.753906 86.015625 C 186.164062 85.207031 186.859375 84.007812 186.859375 82.4375 C 186.859375 79.617188 184.660156 78.199219 180.253906 78.199219 M 187.183594 88.738281 C 189.285156 90.058594 190.34375 92.058594 190.34375 94.734375 L 190.34375 102.148438 L 186.449219 102.148438 L 186.449219 94.859375 C 186.449219 92.050781 184.230469 90.640625 179.804688 90.640625 L 169.917969 90.640625 L 169.917969 102.148438 L 166.03125 102.148438 L 166.03125 74.679688 L 180.167969 74.679688 C 187.21875 74.679688 190.742188 77.21875 190.742188 82.292969 C 190.742188 85.1875 189.550781 87.328125 187.171875 88.738281 " clip-rule="nonzero"></path>
    </clipPath>
    <clipPath id="ed2df9f707">
      <path d="M 197.109375 74.679688 L 222.027344 74.679688 L 222.027344 78.199219 L 197.109375 78.199219 Z M 207.636719 78.199219 L 211.53125 78.199219 L 211.53125 102.148438 L 207.636719 102.148438 Z M 207.636719 78.199219 " clip-rule="nonzero"></path>
    </clipPath>
    <clipPath id="46a0d85291">
      <path d="M 228.6875 74.542969 L 254.699219 74.542969 L 254.699219 102.289062 L 228.6875 102.289062 Z M 228.6875 74.542969 " clip-rule="nonzero"></path>
    </clipPath>
    <clipPath id="55c855689c">
      <path d="M 251.191406 102.148438 L 232.605469 80.789062 L 232.605469 102.148438 L 228.71875 102.148438 L 228.71875 74.679688 L 232.203125 74.679688 C 234.554688 77.488281 237.675781 81.085938 241.558594 85.464844 C 246.261719 90.734375 249.335938 94.199219 250.800781 95.875 L 250.800781 74.679688 L 254.695312 74.679688 L 254.695312 102.148438 Z M 251.191406 102.148438 " clip-rule="nonzero"></path>
    </clipPath>
    <clipPath id="045e071d4a">
      <path d="M 263.511719 74.542969 L 286.632812 74.542969 L 286.632812 102.289062 L 263.511719 102.289062 Z M 263.511719 74.542969 " clip-rule="nonzero"></path>
    </clipPath>
    <clipPath id="04a1c79dcd">
      <path d="M 263.566406 102.148438 L 263.566406 74.679688 L 286.296875 74.679688 L 286.296875 78.199219 L 267.449219 78.199219 L 267.449219 86.101562 L 284.144531 86.101562 L 284.144531 89.621094 L 267.449219 89.621094 L 267.449219 98.617188 L 286.496094 98.617188 L 286.496094 102.140625 Z M 263.566406 102.148438 " clip-rule="nonzero"></path>
    </clipPath>
    <clipPath id="bc959b699f">
      <path d="M 293.570312 74.542969 L 318.566406 74.542969 L 318.566406 102.289062 L 293.570312 102.289062 Z M 293.570312 74.542969 " clip-rule="nonzero"></path>
    </clipPath>
    <clipPath id="2189a6f5e4">
      <path d="M 307.929688 78.199219 L 297.605469 78.199219 L 297.605469 87.121094 L 307.285156 87.121094 C 309.445312 87.121094 311.15625 86.746094 312.433594 86.015625 C 313.832031 85.207031 314.535156 84.007812 314.535156 82.4375 C 314.535156 79.617188 312.335938 78.199219 307.929688 78.199219 M 314.859375 88.738281 C 316.964844 90.058594 318.019531 92.058594 318.019531 94.734375 L 318.019531 102.148438 L 314.128906 102.148438 L 314.128906 94.859375 C 314.128906 92.050781 311.910156 90.640625 307.484375 90.640625 L 297.605469 90.640625 L 297.605469 102.148438 L 293.710938 102.148438 L 293.710938 74.679688 L 307.855469 74.679688 C 314.90625 74.679688 318.429688 77.21875 318.429688 82.292969 C 318.429688 85.1875 317.238281 87.328125 314.859375 88.738281 " clip-rule="nonzero"></path>
    </clipPath>
    <clipPath id="62936f340f">
      <path d="M 343 3.363281 L 508 3.363281 L 508 168.75 L 343 168.75 Z M 343 3.363281 " clip-rule="nonzero"></path>
    </clipPath>
    <clipPath id="ad710c98a0">
      <path d="M 425.433594 3.898438 C 380.0625 3.898438 343.277344 40.683594 343.277344 86.054688 C 343.277344 96.621094 345.296875 106.714844 348.933594 115.992188 C 383.847656 127.355469 423.679688 120.351562 452.957031 94.042969 C 463.898438 84.207031 472.304688 72.617188 478.167969 60.085938 C 472.570312 77.148438 462.585938 93.035156 448.277344 105.902344 C 422.441406 129.125 388.367188 137.292969 356.722656 131.082031 C 359.351562 135.085938 362.324219 138.84375 365.589844 142.3125 C 395.621094 145.261719 426.722656 136.105469 450.929688 114.347656 C 462.398438 104.046875 471.226562 91.890625 477.371094 78.75 C 471.5 96.636719 461.050781 113.289062 446.039062 126.777344 C 427.183594 143.726562 404.128906 153.027344 380.671875 154.929688 C 385.171875 157.863281 389.976562 160.359375 395.027344 162.371094 C 414.34375 158.199219 432.875 149.105469 448.621094 134.945312 C 460.714844 124.082031 470.027344 111.269531 476.507812 97.402344 C 470.324219 116.265625 459.296875 133.828125 443.472656 148.0625 C 434.457031 156.164062 424.523438 162.589844 414.066406 167.402344 C 417.785156 167.914062 421.574219 168.203125 425.433594 168.203125 C 470.804688 168.203125 507.589844 131.417969 507.589844 86.046875 C 507.589844 40.675781 470.804688 3.898438 425.433594 3.898438 " clip-rule="nonzero"></path>
    </clipPath>
    <clipPath id="e0c59e659e">
      <path d="M 365 78.660156 L 477.875 78.660156 L 477.875 155 L 365 155 Z M 365 78.660156 " clip-rule="nonzero"></path>
    </clipPath>
    <clipPath id="6682d8f6f0">
      <path d="M 477.371094 78.75 C 471.226562 91.890625 462.398438 104.046875 450.929688 114.347656 C 426.722656 136.105469 395.621094 145.261719 365.589844 142.3125 C 370.089844 147.09375 375.152344 151.335938 380.671875 154.929688 C 404.136719 153.027344 427.191406 143.726562 446.039062 126.777344 C 461.050781 113.289062 471.5 96.636719 477.371094 78.742188 " clip-rule="nonzero"></path>
    </clipPath>
    <clipPath id="f7165c9ccd">
      <path d="M 395 97 L 476.53125 97 L 476.53125 168 L 395 168 Z M 395 97 " clip-rule="nonzero"></path>
    </clipPath>
    <clipPath id="51b82daa4c">
      <path d="M 476.507812 97.410156 C 470.027344 111.269531 460.714844 124.089844 448.621094 134.953125 C 432.867188 149.113281 414.34375 158.207031 395.027344 162.378906 C 401.058594 164.78125 407.429688 166.496094 414.066406 167.410156 C 424.523438 162.589844 434.457031 156.171875 443.472656 148.070312 C 459.296875 133.835938 470.324219 116.273438 476.507812 97.410156 " clip-rule="nonzero"></path>
    </clipPath>
    <clipPath id="3360e970ee">
      <path d="M 348.792969 60 L 478.546875 60 L 478.546875 133.117188 L 348.792969 133.117188 Z M 348.792969 60 " clip-rule="nonzero"></path>
    </clipPath>
    <clipPath id="3cba17f7d5">
      <path d="M 448.277344 105.902344 C 462.585938 93.035156 472.5625 77.148438 478.167969 60.085938 C 472.304688 72.617188 463.890625 84.207031 452.957031 94.042969 C 423.6875 120.351562 383.847656 127.355469 348.933594 115.992188 C 351.015625 121.3125 353.636719 126.367188 356.730469 131.082031 C 388.375 137.292969 422.449219 129.125 448.285156 105.902344 " clip-rule="nonzero"></path>
    </clipPath>
    <clipPath id="ab37ae9904">
      <path d="M 361.566406 74 L 479.890625 74 L 479.890625 151.941406 L 361.566406 151.941406 Z M 361.566406 74 " clip-rule="nonzero"></path>
    </clipPath>
    <clipPath id="9773f1d970">
      <path d="M 447.808594 122.933594 C 463 109.277344 473.574219 92.425781 479.515625 74.320312 C 473.292969 87.613281 464.363281 99.921875 452.753906 110.347656 C 427.019531 133.484375 393.570312 142.570312 361.785156 138.132812 C 365.957031 143.21875 370.730469 147.796875 375.992188 151.75 C 401.664062 150.953125 427.207031 141.441406 447.800781 122.925781 " clip-rule="nonzero"></path>
    </clipPath>
    <clipPath id="052675bb1f">
      <path d="M 388.457031 92.777344 L 479 92.777344 L 479 166.734375 L 388.457031 166.734375 Z M 388.457031 92.777344 " clip-rule="nonzero"></path>
    </clipPath>
    <clipPath id="1b2b34ef96">
      <path d="M 478.660156 92.980469 C 472.179688 106.839844 462.867188 119.660156 450.773438 130.523438 C 432.679688 146.796875 410.914062 156.382812 388.5 159.492188 C 394.640625 162.574219 401.207031 164.921875 408.097656 166.394531 C 421.550781 161.386719 434.300781 153.824219 445.625 143.648438 C 461.449219 129.414062 472.476562 111.851562 478.660156 92.988281 " clip-rule="nonzero"></path>
    </clipPath>
    <clipPath id="1ddc0291e5">
      <path d="M 347 55.128906 L 480.5625 55.128906 L 480.5625 130 L 347 130 Z M 347 55.128906 " clip-rule="nonzero"></path>
    </clipPath>
    <clipPath id="629c4aadc5">
      <path d="M 454.710938 90.148438 C 424.5 117.296875 383.207031 124.246094 347.347656 111.90625 C 349.128906 117.28125 351.453125 122.410156 354.25 127.230469 C 387.144531 134.570312 422.984375 126.445312 449.960938 102.191406 C 464.496094 89.121094 474.628906 72.984375 480.3125 55.65625 C 474.355469 68.382812 465.816406 80.160156 454.703125 90.140625 " clip-rule="nonzero"></path>
    </clipPath>
  </defs>
  <g clip-path="url(#05ac3f553e)">
    <g clip-path="url(#a264cd7820)">
      <path fill="#1d1d1b" d="M 99.558594 113.917969 L 134.070312 113.917969 L 134.070312 145.695312 L 99.558594 145.695312 Z M 99.558594 113.917969 " fill-opacity="1" fill-rule="nonzero"></path>
    </g>
  </g>
  <g clip-path="url(#03c50b3673)">
    <g clip-path="url(#0a4d5ed482)">
      <path fill="#1d1d1b" d="M 146.539062 114.238281 L 180.714844 114.238281 L 180.714844 145.375 L 146.539062 145.375 Z M 146.539062 114.238281 " fill-opacity="1" fill-rule="nonzero"></path>
    </g>
  </g>
  <g clip-path="url(#09b8c753a9)">
    <g clip-path="url(#1fb818328c)">
      <path fill="#1d1d1b" d="M 193.289062 114.238281 L 222.265625 114.238281 L 222.265625 145.367188 L 193.289062 145.367188 Z M 193.289062 114.238281 " fill-opacity="1" fill-rule="nonzero"></path>
    </g>
  </g>
  <g clip-path="url(#ee8154d06a)">
    <g clip-path="url(#579a66eb43)">
      <path fill="#1d1d1b" d="M 236.597656 114.375 L 271.710938 114.375 L 271.710938 145.695312 L 236.597656 145.695312 Z M 236.597656 114.375 " fill-opacity="1" fill-rule="nonzero"></path>
    </g>
  </g>
  <g clip-path="url(#4f19d20282)">
    <g clip-path="url(#a0c2a9cd33)">
      <path fill="#1d1d1b" d="M 286.925781 114.238281 L 316.363281 114.238281 L 316.363281 145.398438 L 286.925781 145.398438 Z M 286.925781 114.238281 " fill-opacity="1" fill-rule="nonzero"></path>
    </g>
  </g>
  <g clip-path="url(#5a6947429b)">
    <path fill="#1d1d1b" d="M 95.75 26.414062 L 325.058594 26.414062 L 325.058594 63.972656 L 95.75 63.972656 Z M 95.75 26.414062 " fill-opacity="1" fill-rule="nonzero"></path>
  </g>
  <g clip-path="url(#d10dadabe0)">
    <g clip-path="url(#fcf1277829)">
      <path fill="#1d1d1b" d="M 95.75 26.414062 L 325.058594 26.414062 L 325.058594 63.972656 L 95.75 63.972656 Z M 95.75 26.414062 " fill-opacity="1" fill-rule="nonzero"></path>
    </g>
  </g>
  <g clip-path="url(#f42294313b)">
    <g clip-path="url(#8f3ea01995)">
      <path fill="#1d1d1b" d="M 95.75 26.414062 L 325.058594 26.414062 L 325.058594 63.972656 L 95.75 63.972656 Z M 95.75 26.414062 " fill-opacity="1" fill-rule="nonzero"></path>
    </g>
  </g>
  <g clip-path="url(#5660c33c76)">
    <g clip-path="url(#a9d30e5c5e)">
      <path fill="#1d1d1b" d="M 95.75 26.414062 L 325.058594 26.414062 L 325.058594 63.972656 L 95.75 63.972656 Z M 95.75 26.414062 " fill-opacity="1" fill-rule="nonzero"></path>
    </g>
  </g>
  <g clip-path="url(#74524fae03)">
    <path fill="#1d1d1b" d="M 95.75 26.414062 L 325.058594 26.414062 L 325.058594 63.972656 L 95.75 63.972656 Z M 95.75 26.414062 " fill-opacity="1" fill-rule="nonzero"></path>
  </g>
  <g clip-path="url(#0199e6d8d8)">
    <path fill="#1d1d1b" d="M 95.75 26.414062 L 325.058594 26.414062 L 325.058594 63.972656 L 95.75 63.972656 Z M 95.75 26.414062 " fill-opacity="1" fill-rule="nonzero"></path>
  </g>
  <g clip-path="url(#9aa930560d)">
    <g clip-path="url(#c5fbd854ec)">
      <path fill="#1d1d1b" d="M 95.75 26.414062 L 325.058594 26.414062 L 325.058594 63.972656 L 95.75 63.972656 Z M 95.75 26.414062 " fill-opacity="1" fill-rule="nonzero"></path>
    </g>
  </g>
  <g clip-path="url(#83de73a7bf)">
    <g clip-path="url(#e40500b9d9)">
      <path fill="#1d1d1b" d="M 95.75 26.414062 L 325.058594 26.414062 L 325.058594 63.972656 L 95.75 63.972656 Z M 95.75 26.414062 " fill-opacity="1" fill-rule="nonzero"></path>
    </g>
  </g>
  <g clip-path="url(#59d628ae6f)">
    <g clip-path="url(#af5c2f14ad)">
      <path fill="#1d1d1b" d="M 95.75 69.917969 L 323.191406 69.917969 L 323.191406 106.910156 L 95.75 106.910156 Z M 95.75 69.917969 " fill-opacity="1" fill-rule="nonzero"></path>
    </g>
  </g>
  <g clip-path="url(#b34b749e43)">
    <g clip-path="url(#8b830d827a)">
      <path fill="#1d1d1b" d="M 95.75 69.917969 L 323.191406 69.917969 L 323.191406 106.910156 L 95.75 106.910156 Z M 95.75 69.917969 " fill-opacity="1" fill-rule="nonzero"></path>
    </g>
  </g>
  <g clip-path="url(#bb8c9b147c)">
    <g clip-path="url(#0df0f3bd18)">
      <path fill="#1d1d1b" d="M 95.75 69.917969 L 323.191406 69.917969 L 323.191406 106.910156 L 95.75 106.910156 Z M 95.75 69.917969 " fill-opacity="1" fill-rule="nonzero"></path>
    </g>
  </g>
  <g clip-path="url(#ed2df9f707)">
    <path fill="#1d1d1b" d="M 95.75 69.917969 L 323.191406 69.917969 L 323.191406 106.910156 L 95.75 106.910156 Z M 95.75 69.917969 " fill-opacity="1" fill-rule="nonzero"></path>
  </g>
  <g clip-path="url(#46a0d85291)">
    <g clip-path="url(#55c855689c)">
      <path fill="#1d1d1b" d="M 95.75 69.917969 L 323.191406 69.917969 L 323.191406 106.910156 L 95.75 106.910156 Z M 95.75 69.917969 " fill-opacity="1" fill-rule="nonzero"></path>
    </g>
  </g>
  <g clip-path="url(#045e071d4a)">
    <g clip-path="url(#04a1c79dcd)">
      <path fill="#1d1d1b" d="M 95.75 69.917969 L 323.191406 69.917969 L 323.191406 106.910156 L 95.75 106.910156 Z M 95.75 69.917969 " fill-opacity="1" fill-rule="nonzero"></path>
    </g>
  </g>
  <g clip-path="url(#bc959b699f)">
    <g clip-path="url(#2189a6f5e4)">
      <path fill="#1d1d1b" d="M 95.75 69.917969 L 323.191406 69.917969 L 323.191406 106.910156 L 95.75 106.910156 Z M 95.75 69.917969 " fill-opacity="1" fill-rule="nonzero"></path>
    </g>
  </g>
  <g clip-path="url(#62936f340f)">
    <g clip-path="url(#ad710c98a0)">
      <path fill="#003da7" d="M 339.378906 0 L 511.492188 0 L 511.492188 172.109375 L 339.378906 172.109375 Z M 339.378906 0 " fill-opacity="1" fill-rule="nonzero"></path>
    </g>
  </g>
  <g clip-path="url(#e0c59e659e)">
    <g clip-path="url(#6682d8f6f0)">
      <path fill="#ffffff" d="M 339.378906 0 L 511.492188 0 L 511.492188 172.109375 L 339.378906 172.109375 Z M 339.378906 0 " fill-opacity="1" fill-rule="nonzero"></path>
    </g>
  </g>
  <g clip-path="url(#f7165c9ccd)">
    <g clip-path="url(#51b82daa4c)">
      <path fill="#ffffff" d="M 339.378906 0 L 511.492188 0 L 511.492188 172.109375 L 339.378906 172.109375 Z M 339.378906 0 " fill-opacity="1" fill-rule="nonzero"></path>
    </g>
  </g>
  <g clip-path="url(#3360e970ee)">
    <g clip-path="url(#3cba17f7d5)">
      <path fill="#ffffff" d="M 339.378906 0 L 511.492188 0 L 511.492188 172.109375 L 339.378906 172.109375 Z M 339.378906 0 " fill-opacity="1" fill-rule="nonzero"></path>
    </g>
  </g>
  <g clip-path="url(#ab37ae9904)">
    <g clip-path="url(#9773f1d970)">
      <path fill="#fcd118" d="M 339.378906 0 L 511.492188 0 L 511.492188 172.109375 L 339.378906 172.109375 Z M 339.378906 0 " fill-opacity="1" fill-rule="nonzero"></path>
    </g>
  </g>
  <g clip-path="url(#052675bb1f)">
    <g clip-path="url(#1b2b34ef96)">
      <path fill="#3c74b8" d="M 339.378906 0 L 511.492188 0 L 511.492188 172.109375 L 339.378906 172.109375 Z M 339.378906 0 " fill-opacity="1" fill-rule="nonzero"></path>
    </g>
  </g>
  <g clip-path="url(#1ddc0291e5)">
    <g clip-path="url(#629c4aadc5)">
      <path fill="#009d60" d="M 339.378906 0 L 511.492188 0 L 511.492188 172.109375 L 339.378906 172.109375 Z M 339.378906 0 " fill-opacity="1" fill-rule="nonzero"></path>
    </g>
  </g>
</svg>
