<?xml version="1.0" encoding="UTF-8"?>
<svg id="Calque_2" data-name="Calque 2" xmlns="http://www.w3.org/2000/svg" viewBox="0 0 347.89 103.73">
  <defs>
    <style>
      .cls-1, .cls-2 {
        fill: #fff;
      }

      .cls-2 {
        fill-rule: evenodd;
      }
    </style>
  </defs>
  <g id="OBJECTS">
    <g id="Logo">
      <g>
        <path class="cls-1" d="M169.9,55.19v-9.22c0-3.75.04-7.09.13-10,.09-2.92.23-5.85.41-8.78-.77.09-1.6.16-2.51.23-.9.07-1.92.11-3.05.11s-2.15-.04-3.05-.11c-.91-.07-1.74-.14-2.51-.23.18,2.93.32,5.86.41,8.78.09,2.91.13,6.25.13,10v9.22c0,3.76-.04,7.09-.13,10-.09,2.92-.23,5.78-.41,8.58.77-.09,1.6-.13,2.51-.13h6.1c.91,0,1.74.04,2.51.13-.18-2.8-.32-5.66-.41-8.58-.09-2.91-.13-6.24-.13-10Z"/>
        <path class="cls-1" d="M207.6,71.06c0-.72.02-1.29.07-1.69.04-.41.11-.86.2-1.36-2.62.31-5.22.54-7.8.68-2.57.13-5.15.2-7.73.2-.05-1.76-.07-3.84-.1-6.24-.02-2.4-.03-4.88-.03-7.46v-9.22c0-3.75.05-7.09.13-10,.09-2.92.23-5.85.41-8.78-.77.09-1.61.16-2.51.23-.9.07-1.92.11-3.05.11s-2.15-.04-3.05-.11c-.91-.07-1.74-.14-2.51-.23.18,2.93.31,5.86.41,8.78.09,2.91.13,6.25.13,10v9.22c0,3.76-.04,7.09-.13,10-.1,2.92-.23,5.78-.41,8.58.36-.04.8-.08,1.32-.1.52-.02,1.29-.03,2.31-.03h10.75c3.11,0,5.57.01,7.36.03,1.78.02,3.28.06,4.5.1-.09-.27-.16-.61-.2-1.02-.05-.4-.07-.97-.07-1.69Z"/>
        <path class="cls-1" d="M241.51,71.06c0-.72.02-1.29.06-1.69.04-.41.11-.86.2-1.36-2.62.31-5.21.54-7.8.68-2.57.13-5.15.2-7.72.2-.04-1.76-.08-3.84-.11-6.24-.02-2.4-.03-4.88-.03-7.46v-9.22c0-3.75.05-7.09.14-10,.08-2.92.22-5.85.4-8.78-.76.09-1.6.16-2.51.23-.9.07-1.91.11-3.05.11s-2.14-.04-3.05-.11c-.9-.07-1.74-.14-2.5-.23.18,2.93.31,5.86.4,8.78.09,2.91.14,6.25.14,10v9.22c0,3.76-.05,7.09-.14,10-.09,2.92-.22,5.78-.4,8.58.35-.04.8-.08,1.32-.1s1.29-.03,2.3-.03h10.75c3.12,0,5.57.01,7.36.03,1.78.02,3.29.06,4.5.1-.09-.27-.16-.61-.2-1.02-.04-.4-.06-.97-.06-1.69Z"/>
        <path class="cls-1" d="M296.05,39.83c-1.33-3.05-3.15-5.57-5.45-7.56-2.31-1.99-5.02-3.48-8.14-4.47-3.12-1-6.49-1.5-10.1-1.5-3.93,0-7.5.64-10.72,1.9-3.21,1.27-5.94,3.01-8.2,5.22-2.26,2.22-4.01,4.8-5.25,7.74-1.25,2.93-1.87,6.07-1.87,9.42,0,4.25.68,7.9,2.03,10.95,1.36,3.06,3.2,5.57,5.53,7.53,2.33,1.96,5.06,3.39,8.2,4.27,3.15.88,6.5,1.32,10.07,1.32,3.8,0,7.28-.61,10.44-1.83,3.17-1.22,5.89-2.92,8.18-5.12,2.28-2.19,4.06-4.75,5.35-7.69,1.3-2.94,1.94-6.11,1.94-9.5,0-4.07-.67-7.63-2.01-10.68ZM285.68,58.72c-.83,2.71-1.95,4.95-3.32,6.71-1.38,1.76-2.99,3.08-4.85,3.94-1.86.85-3.8,1.28-5.83,1.28-1.9,0-3.71-.34-5.42-1.01-1.72-.68-3.24-1.78-4.54-3.29-1.32-1.52-2.36-3.52-3.13-6-.77-2.49-1.15-5.54-1.15-9.16,0-2.89.33-5.62.98-8.17.66-2.55,1.62-4.78,2.88-6.68,1.27-1.9,2.82-3.4,4.65-4.51,1.83-1.11,3.9-1.66,6.2-1.66,2.17,0,4.17.44,6.01,1.32,1.82.88,3.38,2.14,4.67,3.77,1.29,1.62,2.3,3.6,3.02,5.93.72,2.33,1.09,4.96,1.09,7.9,0,3.71-.42,6.92-1.26,9.63Z"/>
        <path class="cls-1" d="M344.84,27.53c-.77,0-1.78-.12-3.05-.34.09.45.17,1.33.24,2.64s.11,2.87.13,4.68c.03,1.81.05,3.78.08,5.93.01,2.15.03,4.33.03,6.55v12.47c-5.07-5.46-10-10.85-14.82-16.14-4.81-5.29-9.69-10.66-14.61-16.13-1.27.22-2.29.34-3.05.34s-1.79-.12-3.05-.34c.04,1.62.11,3.5.2,5.62.09,2.13.14,4.75.14,7.87,0,3.44-.06,7.02-.17,10.75-.12,3.73-.25,7.19-.41,10.37-.16,3.19-.3,5.89-.44,8.11-.14,2.21-.25,3.5-.34,3.86,1.04-.09,2.07-.13,3.12-.13h1.56c.54,0,1.08.04,1.62.13-.04-.5-.09-1.16-.13-2-.05-.84-.09-1.91-.14-3.22-.04-1.31-.08-2.91-.1-4.82-.02-1.89-.03-4.2-.03-6.91v-7.87c0-1.35.01-2.69.03-4,.02-1.31.06-2.62.1-3.93,10.45,10.98,20.32,21.9,29.64,32.75.76-.09,1.65-.13,2.64-.13s1.88.04,2.78.13v-8.13c0-3.26,0-6.32.03-9.19.02-2.87.09-5.78.17-8.72.09-2.94.21-6.07.34-9.39.14-3.32.32-7.04.54-11.15-1.26.22-2.28.34-3.05.34Z"/>
        <path class="cls-1" d="M148.34,38.54c-1.27-2.82-3.05-5.07-5.36-6.74-2.31-1.68-5.05-2.86-8.24-3.56s-6.73-1.05-10.61-1.05c-2.99,0-5.4.05-7.26.16-1.85.12-3.52.18-5.02.18-1.13,0-2.14-.04-3.05-.11-.9-.07-1.74-.14-2.51-.23.19,2.93.32,5.84.41,8.75.13.29.27.57.4.86,3.18,6.1,5.28,13.39,5.81,21.23.04.59.07,1.16.09,1.74.18,4.9-.29,9.58-1.28,13.87h.13c1.77,0,3.85.02,6.24.06,2.4.05,5.29.07,8.68.07,3.21,0,6.23-.56,9.05-1.69,2.83-1.13,5.32-2.77,7.47-4.92,2.14-2.15,3.84-4.74,5.08-7.76,1.24-3.03,1.86-6.42,1.86-10.18,0-4.29-.63-7.85-1.89-10.68ZM135.04,64.89c-2.98,3.48-7.03,5.22-12.13,5.22-1.4,0-2.58-.02-3.53-.07-.95-.04-1.76-.09-2.44-.13,0-.32-.01-1.02-.03-2.1-.03-1.09-.04-2.29-.04-3.6v-27.06c0-1.35.01-2.57.04-3.66.02-1.08.03-1.78.03-2.1,1.04-.09,2.07-.17,3.09-.24,1.01-.07,2.33-.1,3.96-.1,2.35,0,4.48.42,6.38,1.25,1.89.84,3.52,2.04,4.88,3.6,1.35,1.56,2.4,3.45,3.15,5.66.75,2.22,1.12,4.73,1.12,7.53,0,7.05-1.49,12.32-4.48,15.8Z"/>
      </g>
      <path class="cls-2" d="M68.55,76.68c-2.5.93-5.31,1.44-8.36,1.44-16.69,0-32.79-15.96-39.53-31.1-4.79-10.77-5.69-22.33-1.53-32.12,2.86-6.73,7.72-11.76,13.81-14.91C8.84,3.63-4.94,25.17,1.64,51.19c2.49,9.86,7.42,18.19,16.36,25.33,8.13,6.48,18.1,10.5,27.99,10.5s17.7-3.95,22.55-10.34Z"/>
      <path class="cls-1" d="M105.89,59.85c-.02-.52-.05-1.04-.08-1.56-.48-7.05-2.37-13.6-5.22-19.08-.24-.53-.48-1.06-.73-1.6C89.51,16.35,65.95-2.61,44.03,1.83c-8.57,1.73-15.6,6.9-19.08,15.09-2.99,7.05-2.85,15.2-.19,23.08,1.17-10.31,9.21-17.68,20.83-17.68,7.01,0,14.06,2.69,19.95,7.09,3.1,2.31,5.9,5.09,8.18,8.2.83,1.12,1.59,2.29,2.29,3.5,2.37,4.3,3.94,9.38,4.42,14.86h0s-.06,2.61-.06,3.88c0,11.11-4.62,20.57-12.9,26.32-5.42,3.76-12.39,5.93-20.67,5.93-6.16,0-12.35-1.3-18.24-3.64,18.76,13.28,41.68,16.24,57.78,7.58,3.27-1.76,6.18-3.96,8.7-6.51,6.98-5.85,11.32-16.92,10.85-29.68Z"/>
      <g>
        <path class="cls-1" d="M136.72,97.6c.26-.06.52-.12.79-.16.65-.1,1.08-.22,1.31-.37.08-.05.16-.15.24-.3.08-.15.3-.95.66-2.4.46-1.93.87-3.95,1.23-6.06l.64-3.3.07-.67c.03-.18.05-.33.05-.45,0-.21-.06-.35-.19-.43-.22-.14-.63-.21-1.25-.21h-.09s-.31.01-.31.01c-.12,0-.28-.02-.47-.07.02-.15.06-.32.1-.49l1.39.07,2.16.07,1.94-.09.87-.05v.4c-.14.04-.42.08-.83.13-.63.08-1.02.16-1.16.25-.1.08-.19.21-.28.4-.08.19-.4,1.55-.94,4.09l-1.32,6.29c-.35,1.61-.52,2.52-.52,2.74,0,.05.02.1.05.16.19.12.58.2,1.18.25.38.04.69.08.94.13l.03.36s-.09.05-.17.05h-.28c-.36.02-.96.03-1.8.03l-2.05-.05h-.54s-.22,0-.52.03-.61.03-.91.03v-.39Z"/>
        <path class="cls-1" d="M148.36,89.81c-.02-.06-.04-.1-.06-.13-.03-.02-.06-.03-.1-.03-.4,0-1.03.63-1.87,1.89-.08,0-.15.01-.19.01-.05,0-.12,0-.23-.01.16-.32.43-.73.79-1.22.37-.49.75-.9,1.17-1.22.41-.33.8-.57,1.17-.73.12-.05.23-.08.33-.08.04,0,.1,0,.17.01.14.14.21.28.21.42,0,.09,0,.18-.03.28-.02.09-.06.23-.12.43-.23.66-.4,1.12-.51,1.39l-.66,1.7c-.15.39-.3.81-.45,1.24.06-.08.12-.15.16-.22.72-1.04,1.49-2.04,2.32-3,.83-.95,1.51-1.59,2.05-1.92.39-.24.75-.36,1.1-.36.26,0,.47.07.61.21.15.14.22.32.22.55,0,.14-.02.27-.05.4-.05.29-.17.7-.36,1.22-.19.52-.67,1.65-1.46,3.39l-1.16,2.66-.05.15s.03.12.08.21c.43-.09,1.08-.77,1.94-2.05h.47c-.24.44-.63.99-1.18,1.67-.42.51-.88.91-1.36,1.2-.27.16-.56.24-.87.24-.19,0-.32-.04-.42-.12-.09-.08-.14-.16-.14-.25,0-.41.2-1.04.59-1.89l1.68-3.65.65-1.53c.15-.34.23-.57.27-.7.03-.13.05-.26.05-.39,0-.1-.03-.18-.08-.24-.05-.06-.12-.09-.21-.09-.12,0-.27.05-.43.15-.57.34-1.2.92-1.89,1.74-.99,1.18-1.64,2.03-1.97,2.54-.81,1.27-1.51,2.57-2.11,3.9-.09.21-.2.37-.34.47-.16.02-.29.03-.37.03-.1,0-.25-.02-.46-.06-.03-.06-.05-.11-.05-.15,0-.06.04-.2.12-.41.17-.5.59-1.55,1.25-3.15l.27-.62,1.48-3.9Z"/>
        <path class="cls-1" d="M156.45,98.35c-.59-.48-.96-.82-1.13-1.02-.06-.08-.09-.16-.09-.25,0-.12.04-.22.12-.31.08-.09.28-.2.59-.33.31-.13.82-.43,1.53-.89-.08-.11-.27-.31-.56-.61l-.37-.4c-.09-.17-.18-.39-.25-.68-.08-.28-.12-.57-.12-.85,0-.46.07-.9.22-1.33.21-.64.46-1.17.77-1.61.3-.44.61-.78.93-1.03.22-.17.48-.31.79-.41.48-.17.88-.25,1.21-.25.39,0,.79.1,1.18.29.25.12.55.18.88.18.13,0,.29-.01.47-.03.18-.02.31-.03.38-.03.06,0,.15,0,.28.02.02.23.03.39.03.49,0,.08-.03.16-.08.24-.12.02-.21.02-.27.02-.18,0-.45-.05-.81-.15-.15-.04-.28-.07-.39-.1.22.47.32.98.32,1.55,0,1.11-.38,2.15-1.15,3.13-.77.98-1.66,1.57-2.67,1.78-.55.11-.98.28-1.28.53-.12.09-.19.21-.19.37,0,.25.2.54.6.85.49.25.95.46,1.36.65,1.18.41,2.07.88,2.67,1.39.46.39.69.92.69,1.59,0,.35-.09.67-.28.96s-.49.56-.9.81c-.28.17-.73.32-1.36.47-.63.14-1.23.21-1.81.21-1.05,0-1.81-.05-2.28-.15-.86-.18-1.53-.39-2.01-.64s-.87-.57-1.16-.95c-.16-.22-.24-.45-.24-.68,0-.34.16-.63.47-.89.45-.36,1.75-1,3.89-1.93ZM153.74,102.03c.43.39,1.01.67,1.72.85.12.03.24.07.35.1.14.04.37.08.71.13.49.02.9.03,1.24.03.69,0,1.35-.11,1.98-.33.63-.22,1.04-.45,1.23-.69.13-.15.2-.35.2-.6,0-.42-.25-.84-.74-1.27-.37-.31-1.12-.67-2.25-1.1-.51-.2-.93-.37-1.25-.51-.52.17-1.19.48-2.01.92-.44.24-.77.46-1,.67s-.35.33-.38.38c-.09.18-.14.37-.14.56,0,.33.12.61.35.85ZM158.17,95.24c.4-.06.74-.21,1.02-.44.13-.1.35-.41.66-.92.31-.52.54-.98.68-1.39.34-.96.51-1.74.51-2.35,0-.41-.1-.73-.31-.96-.2-.23-.46-.34-.78-.34-.34,0-.67.14-.98.43-.32.29-.7.99-1.14,2.11-.44,1.12-.66,1.99-.66,2.61,0,.32.1.6.29.84.19.24.43.38.72.42Z"/>
        <path class="cls-1" d="M164.73,93.64c-.25.7-.38,1.4-.38,2.11,0,.52.12.94.37,1.25.16.21.38.32.66.32.17,0,.32-.03.45-.1.29-.15.53-.32.73-.52.2-.2.42-.46.64-.78.22-.32.4-.68.54-1.08h.16c.09,0,.2,0,.31.02-.23.86-.8,1.7-1.71,2.52-.57.51-1.16.77-1.77.77-.41,0-.76-.18-1.04-.55-.38-.48-.57-1.15-.57-2,0-.37.06-.81.17-1.32.11-.51.24-.94.39-1.29.23-.54.49-1.04.77-1.52l.89-1.29c.58-.61.9-.95.97-1.01.27-.23.54-.4.82-.52.27-.12.56-.18.85-.18.38,0,.71.16.99.47.29.32.43.71.43,1.19,0,.42-.11.84-.33,1.25-.22.41-.46.71-.71.91l-.96.62c-.11.05-.4.15-.87.29-.47.14-1.08.29-1.82.43ZM164.93,93.06c.25,0,.63-.09,1.16-.29.29-.11.66-.32,1.13-.63.19-.12.4-.33.64-.63.24-.3.42-.6.54-.92.12-.32.19-.65.19-.98,0-.22-.07-.41-.2-.55-.13-.15-.28-.22-.44-.22-.21,0-.45.12-.74.36-.48.41-.98,1.11-1.5,2.08-.39.74-.65,1.34-.77,1.78ZM167.38,86.94l-.21-.02s.34-.51.99-1.41c.64-.9,1-1.4,1.09-1.49.21-.24.42-.42.65-.54.15-.08.32-.12.48-.12.19,0,.34.05.46.16s.17.23.17.37c0,.33-.32.72-.95,1.15l-2.67,1.89Z"/>
        <path class="cls-1" d="M173.02,89.81c-.02-.06-.04-.1-.06-.13-.03-.02-.06-.03-.1-.03-.4,0-1.03.63-1.87,1.89-.08,0-.15.01-.19.01-.05,0-.12,0-.23-.01.16-.32.43-.73.79-1.22.37-.49.75-.9,1.17-1.22.41-.33.8-.57,1.17-.73.12-.05.23-.08.33-.08.04,0,.1,0,.17.01.14.14.21.28.21.42,0,.09,0,.18-.03.28-.02.09-.06.23-.12.43-.23.66-.4,1.12-.51,1.39l-.66,1.7c-.15.39-.3.81-.45,1.24.06-.08.12-.15.16-.22.72-1.04,1.49-2.04,2.32-3,.83-.95,1.51-1.59,2.05-1.92.39-.24.75-.36,1.1-.36.26,0,.47.07.61.21.15.14.22.32.22.55,0,.14-.02.27-.05.4-.05.29-.17.7-.36,1.22-.19.52-.67,1.65-1.46,3.39l-1.16,2.66-.05.15s.03.12.08.21c.43-.09,1.08-.77,1.94-2.05h.47c-.24.44-.63.99-1.18,1.67-.42.51-.88.91-1.36,1.2-.27.16-.56.24-.87.24-.19,0-.32-.04-.42-.12-.09-.08-.14-.16-.14-.25,0-.41.2-1.04.59-1.89l1.68-3.65.65-1.53c.15-.34.23-.57.27-.7.03-.13.05-.26.05-.39,0-.1-.03-.18-.08-.24-.05-.06-.12-.09-.21-.09-.12,0-.27.05-.43.15-.57.34-1.2.92-1.89,1.74-.99,1.18-1.64,2.03-1.97,2.54-.81,1.27-1.51,2.57-2.11,3.9-.09.21-.2.37-.34.47-.16.02-.29.03-.37.03-.1,0-.25-.02-.46-.06-.03-.06-.05-.11-.05-.15,0-.06.04-.2.12-.41.17-.5.59-1.55,1.25-3.15l.27-.62,1.48-3.9Z"/>
        <path class="cls-1" d="M183.21,89.34c-.16,0-.28.01-.36.03-.36.19-.63.36-.8.49-.35.27-.67.58-.98.94l-.67.15c.59-.8,1.25-1.42,1.98-1.87.72-.45,1.3-.68,1.71-.68.18,0,.31.04.4.13.09.09.13.2.13.34,0,.38-.22,1-.65,1.88-.05.11-.18.38-.38.83-.46,1-.96,1.95-1.48,2.85-.17.29-.35.64-.56,1.04-.11.21-.2.39-.29.54-.24.4-.36.69-.36.89,0,.05.02.1.06.14.04.04.09.06.16.06.08,0,.21-.05.39-.14.29-.15.64-.41,1.04-.76.4-.36.76-.77,1.06-1.23h.51c-.23.41-.58.89-1.03,1.43-.46.54-.97.97-1.55,1.29-.44.25-.82.37-1.16.37-.26,0-.45-.05-.57-.16-.12-.1-.18-.24-.18-.41,0-.59.44-1.7,1.31-3.34l1.86-3.5c.19-.36.33-.64.4-.85.05-.13.07-.22.07-.26,0-.04-.02-.11-.06-.21ZM183.87,84.18c0-.27.1-.51.31-.72s.45-.32.73-.32c.26,0,.49.09.67.28s.28.39.28.63c0,.31-.12.59-.35.84-.14.15-.39.22-.76.22-.25,0-.45-.08-.62-.25-.17-.17-.25-.39-.25-.68Z"/>
        <path class="cls-1" d="M187.18,93.64c-.25.7-.38,1.4-.38,2.11,0,.52.12.94.37,1.25.16.21.38.32.66.32.17,0,.32-.03.45-.1.29-.15.53-.32.73-.52.2-.2.42-.46.64-.78.22-.32.4-.68.54-1.08h.16c.09,0,.2,0,.31.02-.23.86-.8,1.7-1.71,2.52-.57.51-1.16.77-1.77.77-.41,0-.76-.18-1.04-.55-.38-.48-.57-1.15-.57-2,0-.37.06-.81.17-1.32.11-.51.24-.94.39-1.29.23-.54.49-1.04.77-1.52l.89-1.29c.58-.61.9-.95.97-1.01.27-.23.54-.4.82-.52.27-.12.56-.18.85-.18.38,0,.71.16.99.47.29.32.43.71.43,1.19,0,.42-.11.84-.33,1.25-.22.41-.46.71-.71.91l-.96.62c-.11.05-.4.15-.87.29-.47.14-1.08.29-1.82.43ZM187.37,93.06c.25,0,.63-.09,1.16-.29.29-.11.66-.32,1.13-.63.19-.12.4-.33.64-.63.24-.3.42-.6.54-.92.12-.32.19-.65.19-.98,0-.22-.07-.41-.2-.55-.13-.15-.28-.22-.44-.22-.21,0-.45.12-.74.36-.48.41-.98,1.11-1.5,2.08-.39.74-.65,1.34-.77,1.78Z"/>
        <path class="cls-1" d="M195.07,89.34c-.25.18-.49.4-.72.64-.06.07-.41.53-1.05,1.38l-.47.02c.19-.41.55-.92,1.07-1.53.52-.61.98-1.02,1.36-1.24.25-.15.52-.23.83-.25.19.05.33.13.4.22.07.09.11.2.11.33s-.02.26-.05.39c-.08.42-.25,1.02-.51,1.8-.25.78-.48,1.4-.68,1.85l-.6,1.41-.05.21c.11-.18.33-.59.66-1.23,1.26-2.37,2.16-3.83,2.72-4.38.41-.39.89-.59,1.43-.59.31,0,.6.12.87.37.2.19.3.44.3.76,0,.35-.11.66-.34.91-.15.18-.37.26-.66.26-.24,0-.41-.06-.5-.17s-.16-.39-.18-.83c-.1-.2-.21-.3-.34-.3s-.25.07-.39.2c-.37.33-1.07,1.38-2.1,3.16-1.03,1.78-1.67,3.02-1.93,3.71-.26.69-.47,1.17-.63,1.43-.08.13-.24.2-.47.2-.21,0-.35-.04-.44-.11-.09-.07-.13-.17-.13-.28,0-.15.04-.33.12-.53.33-.81.86-2.29,1.6-4.45l.81-2.46c.05-.22.09-.36.12-.42l.07-.17c0-.08-.08-.17-.23-.3Z"/>
        <path class="cls-1" d="M202.69,89.34c-.16,0-.28.01-.36.03-.36.19-.63.36-.8.49-.35.27-.67.58-.98.94l-.67.15c.59-.8,1.25-1.42,1.98-1.87.72-.45,1.3-.68,1.71-.68.18,0,.31.04.4.13.09.09.13.2.13.34,0,.38-.22,1-.65,1.88-.05.11-.18.38-.38.83-.46,1-.96,1.95-1.48,2.85-.17.29-.35.64-.56,1.04-.11.21-.2.39-.29.54-.24.4-.36.69-.36.89,0,.05.02.1.06.14.04.04.09.06.16.06.08,0,.21-.05.39-.14.29-.15.64-.41,1.04-.76.4-.36.76-.77,1.06-1.23h.51c-.23.41-.58.89-1.03,1.43-.46.54-.97.97-1.55,1.29-.44.25-.82.37-1.16.37-.26,0-.45-.05-.57-.16-.12-.1-.18-.24-.18-.41,0-.59.44-1.7,1.31-3.34l1.86-3.5c.19-.36.33-.64.4-.85.05-.13.07-.22.07-.26,0-.04-.02-.11-.06-.21ZM203.35,84.18c0-.27.1-.51.31-.72s.45-.32.73-.32c.26,0,.49.09.67.28s.28.39.28.63c0,.31-.12.59-.35.84-.14.15-.39.22-.76.22-.25,0-.45-.08-.62-.25-.17-.17-.25-.39-.25-.68Z"/>
        <path class="cls-1" d="M206.66,93.64c-.25.7-.38,1.4-.38,2.11,0,.52.12.94.37,1.25.16.21.38.32.66.32.17,0,.32-.03.45-.1.29-.15.53-.32.73-.52.2-.2.42-.46.64-.78.22-.32.4-.68.54-1.08h.16c.09,0,.2,0,.31.02-.23.86-.8,1.7-1.71,2.52-.57.51-1.16.77-1.77.77-.41,0-.76-.18-1.04-.55-.38-.48-.57-1.15-.57-2,0-.37.06-.81.17-1.32.11-.51.24-.94.39-1.29.23-.54.49-1.04.77-1.52l.89-1.29c.58-.61.9-.95.97-1.01.27-.23.54-.4.82-.52.27-.12.56-.18.85-.18.38,0,.71.16.99.47.29.32.43.71.43,1.19,0,.42-.11.84-.33,1.25-.22.41-.46.71-.71.91l-.96.62c-.11.05-.4.15-.87.29-.47.14-1.08.29-1.82.43ZM206.86,93.06c.25,0,.63-.09,1.16-.29.29-.11.66-.32,1.13-.63.19-.12.4-.33.64-.63.24-.3.42-.6.54-.92.12-.32.19-.65.19-.98,0-.22-.07-.41-.2-.55-.13-.15-.28-.22-.44-.22-.21,0-.45.12-.74.36-.48.41-.98,1.11-1.5,2.08-.39.74-.65,1.34-.77,1.78Z"/>
        <path class="cls-1" d="M225.09,89.62l1.25-3.97c.05-.17.13-.44.23-.83.02-.08.03-.14.05-.18.16-.5.24-.82.24-.96,0-.1-.05-.19-.15-.27-.21-.16-.56-.3-1.05-.41l-.24-.07.09-.33c1.31,0,2.18-.09,2.61-.26h.14c.09-.01.19,0,.3.03-.05.23-.09.39-.12.47v.07s-.97,2.85-.97,2.85l-1.16,3.68c-.21.63-.35,1.09-.42,1.39-.1.44-.22.86-.35,1.24l-1.64,4.89.03.07c.28-.05.99-.69,2.12-1.94.12.05.22.12.28.21-.64.96-1.36,1.73-2.15,2.32-.57.42-1,.63-1.28.63-.06,0-.15-.02-.25-.05-.05-.07-.07-.13-.07-.18,0-.23.13-.76.39-1.6.26-.84.44-1.44.54-1.82-.2.19-.5.51-.88.95-.74.85-1.52,1.55-2.34,2.1-.59.4-1.12.6-1.6.6-.26,0-.47-.11-.62-.32-.24-.33-.36-.79-.36-1.39,0-.74.17-1.51.5-2.3.2-.48.52-1.1.97-1.86s.96-1.42,1.52-1.98c.56-.56,1.09-.97,1.6-1.22.51-.25.97-.37,1.38-.37.32,0,.61.08.86.23.16.1.34.3.53.59ZM219.97,97.07c.3,0,.64-.14,1.04-.43.72-.52,1.4-1.21,2.04-2.08.64-.86,1.08-1.72,1.34-2.58.26-.86.39-1.37.39-1.53,0-.25-.09-.48-.28-.7-.19-.22-.36-.33-.51-.33-.28,0-.61.1-1,.3-.39.2-.8.54-1.23,1.02-.25.27-.62.83-1.13,1.68-.51.85-.88,1.58-1.13,2.2-.25.61-.37,1.09-.37,1.41s.08.58.24.76.36.28.61.28Z"/>
        <path class="cls-1" d="M229.92,88.2c.56-.41,1.04-.82,1.42-1.24.38-.42.64-.77.77-1.05.03-.1.05-.18.05-.24,0-.14-.11-.28-.32-.44-.45-.33-.68-.67-.68-1.04,0-.47.13-.87.4-1.22.27-.35.48-.52.63-.52.15,0,.32.07.51.22.19.15.35.39.47.73.12.34.19.7.19,1.09s-.07.74-.23,1.1c-.15.36-.39.74-.72,1.13s-.61.69-.86.89c-.48.38-.94.68-1.39.9l-.21-.16-.02-.06v-.09Z"/>
        <path class="cls-1" d="M234.11,97.29c.03-.13.07-.3.1-.49.41-2.04.69-3.49.83-4.36l.71-3.9c.02-.09.08-.47.17-1.14l.38-1.93c.07-.32.12-.73.16-1.23,0-.1.01-.2.01-.3,0-.18-.07-.31-.2-.4-.13-.09-.57-.16-1.33-.2l-.74-.05c0-.14.03-.28.08-.43h3.13s.96.01.96.01l8.12-.09c.18,0,.36,0,.52.02.11,0,.25.01.43.01-.02.2-.1.67-.24,1.43-.08.45-.19.83-.3,1.13-.12-.02-.21-.07-.29-.15-.08-.46-.13-.76-.14-.9-.02-.37-.04-.58-.05-.63,0-.05-.05-.17-.12-.35-.25-.05-.46-.07-.65-.08-.09,0-.21-.02-.36-.03-.17,0-.32,0-.44,0l-.3.02h-.37s-.8.05-.8.05h-1.54s-.23,0-.23,0h-.44s-.18.01-.18.01h-.43s-.29.01-.29.01l-1.15.03c-.2.02-.38.04-.53.08-.08.02-.21.08-.39.16-.02.17-.06.39-.13.66l-.28,1.46-.24,1.36-.03.33c-.19.92-.3,1.57-.35,1.96,0,.11-.02.22-.03.35.39-.05,1.48-.13,3.26-.23,2.17-.12,3.33-.2,3.46-.24.3-.08.53-.2.7-.36s.46-.7.88-1.62l.44-.06c-.07.44-.23,1.24-.49,2.4-.04.15-.08.35-.12.62-.03.18-.1.49-.21.92-.04.17-.07.3-.08.39-.04.28-.08.49-.13.62-.14-.02-.27-.02-.4-.02v-.06s0-.11.02-.22c.04-.15.06-.42.06-.81,0-.51-.08-.84-.24-1-.16-.16-.52-.24-1.06-.24s-1.18.05-1.93.16c-.57,0-1.38.05-2.42.13l-.81.06-.22.03c-.22,0-.38.01-.5.03-.06,0-.16.02-.29.02-.12.63-.22,1.07-.28,1.32-.16.64-.27,1.15-.34,1.53l-.65,3.44c-.02.14-.04.26-.04.36,0,.08.03.17.08.29.16.14.31.23.46.27.15.04.43.07.85.07.1,0,.29,0,.58.01.08,0,.15.01.2.01l1.83-.08.45-.02h.3c.45.01.96-.03,1.53-.13.15-.02.33-.05.55-.07.98-.12,1.86-.47,2.63-1.04.57-.43,1.03-1.08,1.37-1.96h.16c.06,0,.13,0,.2.02-.08.38-.42,1.57-1.01,3.58-.82.02-2.02.03-3.58.03l-1.69.03h-.5l-1.45.05-1.05-.02h-1.12s-2.54,0-2.54,0l-.56.02-.99-.02h-1s-.01-.35-.01-.35l1.08-.05.72-.09c.2-.04.49-.1.86-.18Z"/>
        <path class="cls-1" d="M251.95,89.81c-.02-.06-.04-.1-.06-.13-.03-.02-.06-.03-.1-.03-.4,0-1.03.63-1.87,1.89-.08,0-.15.01-.19.01-.05,0-.12,0-.23-.01.16-.32.43-.73.79-1.22.37-.49.75-.9,1.17-1.22.41-.33.8-.57,1.17-.73.12-.05.23-.08.33-.08.04,0,.1,0,.17.01.14.14.21.28.21.42,0,.09,0,.18-.03.28-.02.09-.06.23-.12.43-.23.66-.4,1.12-.51,1.39l-.66,1.7c-.15.39-.3.81-.45,1.24.06-.08.12-.15.16-.22.72-1.04,1.49-2.04,2.32-3,.83-.95,1.51-1.59,2.05-1.92.39-.24.75-.36,1.1-.36.26,0,.47.07.61.21.15.14.22.32.22.55,0,.14-.02.27-.05.4-.05.29-.17.7-.36,1.22-.19.52-.67,1.65-1.46,3.39l-1.16,2.66-.05.15s.03.12.08.21c.43-.09,1.08-.77,1.94-2.05h.47c-.24.44-.63.99-1.18,1.67-.42.51-.88.91-1.36,1.2-.27.16-.56.24-.87.24-.19,0-.32-.04-.42-.12-.09-.08-.14-.16-.14-.25,0-.41.2-1.04.59-1.89l1.68-3.65.65-1.53c.15-.34.23-.57.27-.7.03-.13.05-.26.05-.39,0-.1-.03-.18-.08-.24-.05-.06-.12-.09-.21-.09-.12,0-.27.05-.43.15-.57.34-1.2.92-1.89,1.74-.99,1.18-1.64,2.03-1.97,2.54-.81,1.27-1.51,2.57-2.11,3.9-.09.21-.2.37-.34.47-.16.02-.29.03-.37.03-.1,0-.25-.02-.46-.06-.03-.06-.05-.11-.05-.15,0-.06.04-.2.12-.41.17-.5.59-1.55,1.25-3.15l.27-.62,1.48-3.9Z"/>
        <path class="cls-1" d="M262.18,89.42h-1.03s-.75.01-.75.01h-.15c.02-.17.08-.36.2-.59,1.12-.03,1.79-.06,2-.08.15-.37.28-.66.38-.89.23-.5.46-1.09.7-1.77.08-.22.16-.43.25-.61.17-.02.37-.03.59-.03.19,0,.36.02.53.06l.02.18c0,.15-.34.99-1.02,2.53-.08.18-.14.36-.19.54.22.04.35.06.39.06h.63s1.1-.01,1.1-.01c0,.25-.05.46-.14.62-.3.03-.7.05-1.2.05-.24,0-.4,0-.47.01-.39.04-.61.08-.67.12l-1.88,4.49c-.21.43-.57,1.26-1.08,2.47,0,.05.02.1.07.16l.15.02c.21,0,.47-.13.77-.39.67-.58,1.3-1.25,1.9-2.01.13.07.24.15.34.24-.76.93-1.29,1.54-1.6,1.83s-.7.6-1.17.92-.76.5-.86.53c-.17.07-.35.1-.53.1s-.33-.04-.42-.12c-.09-.08-.14-.2-.14-.35,0-.22.18-.74.55-1.55l.48-1.07,1.7-4.08c.22-.53.39-.99.53-1.39Z"/>
        <path class="cls-1" d="M267.6,89.34c-.25.18-.49.4-.72.64-.06.07-.41.53-1.05,1.38l-.47.02c.19-.41.55-.92,1.07-1.53.52-.61.98-1.02,1.36-1.24.25-.15.52-.23.83-.25.19.05.33.13.4.22.07.09.11.2.11.33s-.02.26-.05.39c-.08.42-.25,1.02-.51,1.8-.25.78-.48,1.4-.68,1.85l-.6,1.41-.05.21c.11-.18.33-.59.66-1.23,1.26-2.37,2.16-3.83,2.72-4.38.41-.39.89-.59,1.43-.59.31,0,.6.12.87.37.2.19.3.44.3.76,0,.35-.11.66-.34.91-.15.18-.37.26-.66.26-.24,0-.41-.06-.5-.17s-.16-.39-.18-.83c-.1-.2-.21-.3-.34-.3s-.25.07-.39.2c-.37.33-1.07,1.38-2.1,3.16-1.03,1.78-1.67,3.02-1.93,3.71-.26.69-.47,1.17-.63,1.43-.08.13-.24.2-.47.2-.21,0-.35-.04-.44-.11-.09-.07-.13-.17-.13-.28,0-.15.04-.33.12-.53.33-.81.86-2.29,1.6-4.45l.81-2.46c.05-.22.09-.36.12-.42l.07-.17c0-.08-.08-.17-.23-.3Z"/>
        <path class="cls-1" d="M274.35,93.64c-.25.7-.38,1.4-.38,2.11,0,.52.12.94.37,1.25.16.21.38.32.66.32.17,0,.32-.03.45-.1.29-.15.53-.32.73-.52.2-.2.42-.46.64-.78.22-.32.4-.68.54-1.08h.16c.09,0,.2,0,.31.02-.23.86-.8,1.7-1.71,2.52-.57.51-1.16.77-1.77.77-.41,0-.76-.18-1.04-.55-.38-.48-.57-1.15-.57-2,0-.37.06-.81.17-1.32.11-.51.24-.94.39-1.29.23-.54.49-1.04.77-1.52l.89-1.29c.58-.61.9-.95.97-1.01.27-.23.54-.4.82-.52.27-.12.56-.18.85-.18.38,0,.71.16.99.47.29.32.43.71.43,1.19,0,.42-.11.84-.33,1.25-.22.41-.46.71-.71.91l-.96.62c-.11.05-.4.15-.87.29-.47.14-1.08.29-1.82.43ZM274.55,93.06c.25,0,.63-.09,1.16-.29.29-.11.66-.32,1.13-.63.19-.12.4-.33.64-.63.24-.3.42-.6.54-.92.12-.32.19-.65.19-.98,0-.22-.07-.41-.2-.55-.13-.15-.28-.22-.44-.22-.21,0-.45.12-.74.36-.48.41-.98,1.11-1.5,2.08-.39.74-.65,1.34-.77,1.78Z"/>
        <path class="cls-1" d="M275.47,103.34c.29-.07.66-.13,1.12-.18.24-.02.41-.04.51-.06.12-.03.24-.05.35-.07.11-.05.19-.1.23-.15.08-.1.19-.3.31-.61l1.14-2.99c.16-.39.32-.82.46-1.3.09-.3.19-.59.31-.87.11-.28.18-.47.19-.55.05-.18.08-.3.12-.38l1.08-2.98c.04-.12.33-.96.87-2.53.16-.48.31-.95.44-1.43-.55.09-1.03.2-1.43.32-.08.02-.2.06-.36.1-.29.12-.46.17-.53.17-.06,0-.16-.03-.29-.08l-.02-.13c0-.11.06-.2.19-.28.38-.24,1.27-.51,2.68-.81.37-.96.59-1.61.67-1.96.12-.46.25-.78.39-.95.09-.02.19-.02.29-.02.11,0,.27,0,.49.02.13.14.2.25.2.34l-.05.16s-.07.21-.15.53c-.05.18-.12.39-.22.66-.2.51-.33.86-.38,1.03.34-.02.56-.03.68-.03.12,0,.31,0,.55.02h.06c.41,0,.83.11,1.28.32.62.31,1.08.72,1.36,1.24.28.52.43,1.12.43,1.8,0,.51-.1,1.06-.3,1.64-.2.58-.5,1.18-.91,1.78-.41.61-.87,1.11-1.4,1.52-.52.41-.99.68-1.4.82-.92.32-1.52.48-1.81.48-.22,0-.46-.03-.73-.09-.27-.06-.56-.15-.88-.28-.31.62-.82,1.95-1.54,3.99-.14.41-.25.71-.34.9-.08.2-.13.35-.13.45v.1s.14.1.14.1c.21.06.46.1.75.12.29.02.54.04.76.08.04.03.09.06.15.08l.06.18s-.02.08-.06.13c-.3-.02-.53-.02-.69-.02-.11,0-.2,0-.27.01h-.28s-2.13-.07-2.13-.07c-.38,0-.67.02-.89.07-.27-.02-.5-.02-.69-.02h-.43v-.08c-.01-.07.01-.16.06-.28ZM285.09,96.2c.71-.78,1.22-1.58,1.53-2.4.3-.82.46-1.53.46-2.14,0-.39-.05-.79-.16-1.18-.05-.21-.16-.41-.33-.58-.24-.25-.47-.42-.69-.52-.37-.16-.84-.24-1.42-.24-.18,0-.39.01-.63.03-.51,1.58-.93,2.81-1.26,3.68l-.96,2.75c-.08.22-.13.44-.16.64-.02.11-.03.22-.03.35,0,.26.07.45.22.56.23.18.55.26.96.26.37,0,.72-.07,1.06-.22.26-.12.74-.45,1.43-1Z"/>
        <path class="cls-1" d="M292.16,89.34c-.25.18-.49.4-.72.64-.06.07-.41.53-1.05,1.38l-.47.02c.19-.41.55-.92,1.07-1.53.52-.61.98-1.02,1.36-1.24.25-.15.52-.23.83-.25.19.05.33.13.4.22.07.09.11.2.11.33s-.02.26-.05.39c-.08.42-.25,1.02-.51,1.8-.25.78-.48,1.4-.68,1.85l-.6,1.41-.05.21c.11-.18.33-.59.66-1.23,1.26-2.37,2.16-3.83,2.72-4.38.41-.39.89-.59,1.43-.59.31,0,.6.12.87.37.2.19.3.44.3.76,0,.35-.11.66-.34.91-.15.18-.37.26-.66.26-.24,0-.41-.06-.5-.17s-.16-.39-.18-.83c-.1-.2-.21-.3-.34-.3s-.25.07-.39.2c-.37.33-1.07,1.38-2.1,3.16-1.03,1.78-1.67,3.02-1.93,3.71-.26.69-.47,1.17-.63,1.43-.08.13-.24.2-.47.2-.21,0-.35-.04-.44-.11-.09-.07-.13-.17-.13-.28,0-.15.04-.33.12-.53.33-.81.86-2.29,1.6-4.45l.81-2.46c.05-.22.09-.36.12-.42l.07-.17c0-.08-.08-.17-.23-.3Z"/>
        <path class="cls-1" d="M299.78,89.34c-.16,0-.28.01-.36.03-.36.19-.63.36-.8.49-.35.27-.67.58-.98.94l-.67.15c.59-.8,1.25-1.42,1.98-1.87.72-.45,1.3-.68,1.71-.68.18,0,.31.04.4.13.09.09.13.2.13.34,0,.38-.22,1-.65,1.88-.05.11-.18.38-.38.83-.46,1-.96,1.95-1.48,2.85-.17.29-.35.64-.56,1.04-.11.21-.2.39-.29.54-.24.4-.36.69-.36.89,0,.05.02.1.06.14.04.04.09.06.16.06.08,0,.21-.05.39-.14.29-.15.64-.41,1.04-.76.4-.36.76-.77,1.06-1.23h.51c-.23.41-.58.89-1.03,1.43-.46.54-.97.97-1.55,1.29-.44.25-.82.37-1.16.37-.26,0-.45-.05-.57-.16-.12-.1-.18-.24-.18-.41,0-.59.44-1.7,1.31-3.34l1.86-3.5c.19-.36.33-.64.4-.85.05-.13.07-.22.07-.26,0-.04-.02-.11-.06-.21ZM300.44,84.18c0-.27.1-.51.31-.72s.45-.32.73-.32c.26,0,.49.09.67.28s.28.39.28.63c0,.31-.12.59-.35.84-.14.15-.39.22-.76.22-.25,0-.45-.08-.62-.25-.17-.17-.25-.39-.25-.68Z"/>
        <path class="cls-1" d="M302.27,95.82c.39,0,.7.3.95.89.12.29.24.48.36.58.11.1.25.15.43.15.33,0,.65-.15.95-.46.23-.23.35-.58.35-1.06,0-.37-.13-.92-.39-1.66-.37-1.07-.56-1.9-.56-2.51,0-.88.24-1.67.72-2.35.48-.68,1.23-1.02,2.27-1.02.44,0,.79.12,1.05.36.26.24.39.53.39.86,0,.23-.06.42-.19.56-.13.14-.27.21-.43.21-.34,0-.64-.16-.91-.49-.27-.33-.45-.52-.54-.57-.09-.05-.24-.07-.43-.07-.22,0-.41.09-.57.28s-.25.41-.25.67c0,.62.19,1.49.56,2.6.37,1.11.56,1.97.55,2.58,0,.39-.12.79-.36,1.19-.24.4-.62.74-1.13,1.03-.51.28-1.04.42-1.58.42-.65,0-1.13-.14-1.45-.41-.32-.28-.48-.61-.48-.99,0-.23.07-.42.2-.56.13-.14.3-.21.52-.21Z"/>
        <path class="cls-1" d="M310.65,93.64c-.25.7-.38,1.4-.38,2.11,0,.52.12.94.37,1.25.16.21.38.32.66.32.17,0,.32-.03.45-.1.29-.15.53-.32.73-.52.2-.2.42-.46.64-.78.22-.32.4-.68.54-1.08h.16c.09,0,.2,0,.31.02-.23.86-.8,1.7-1.71,2.52-.57.51-1.16.77-1.77.77-.41,0-.76-.18-1.04-.55-.38-.48-.57-1.15-.57-2,0-.37.06-.81.17-1.32.11-.51.24-.94.39-1.29.23-.54.49-1.04.77-1.52l.89-1.29c.58-.61.9-.95.97-1.01.27-.23.54-.4.82-.52.27-.12.56-.18.85-.18.38,0,.71.16.99.47.29.32.43.71.43,1.19,0,.42-.11.84-.33,1.25-.22.41-.46.71-.71.91l-.96.62c-.11.05-.4.15-.87.29-.47.14-1.08.29-1.82.43ZM310.84,93.06c.25,0,.63-.09,1.16-.29.29-.11.66-.32,1.13-.63.19-.12.4-.33.64-.63.24-.3.42-.6.54-.92.12-.32.19-.65.19-.98,0-.22-.07-.41-.2-.55-.13-.15-.28-.22-.44-.22-.21,0-.45.12-.74.36-.48.41-.98,1.11-1.5,2.08-.39.74-.65,1.34-.77,1.78Z"/>
        <path class="cls-1" d="M316.08,95.82c.39,0,.7.3.95.89.12.29.24.48.36.58.11.1.25.15.43.15.33,0,.65-.15.95-.46.23-.23.35-.58.35-1.06,0-.37-.13-.92-.39-1.66-.37-1.07-.56-1.9-.56-2.51,0-.88.24-1.67.72-2.35.48-.68,1.23-1.02,2.27-1.02.44,0,.79.12,1.05.36.26.24.39.53.39.86,0,.23-.06.42-.19.56-.13.14-.27.21-.43.21-.34,0-.64-.16-.91-.49-.27-.33-.45-.52-.54-.57-.09-.05-.24-.07-.43-.07-.22,0-.41.09-.57.28s-.25.41-.25.67c0,.62.19,1.49.56,2.6.37,1.11.56,1.97.55,2.58,0,.39-.12.79-.36,1.19-.24.4-.62.74-1.13,1.03-.51.28-1.04.42-1.58.42-.65,0-1.13-.14-1.45-.41-.32-.28-.48-.61-.48-.99,0-.23.07-.42.2-.56.13-.14.3-.21.52-.21Z"/>
      </g>
    </g>
  </g>
</svg>